<svg id="visual" viewBox="0 0 960 540" width="960" height="540" xmlns="http://www.w3.org/2000/svg" xmlns:xlink="http://www.w3.org/1999/xlink" version="1.1"><rect x="0" y="0" width="960" height="540" fill="#001220"></rect><path d="M0 358L17.8 368.3C35.7 378.7 71.3 399.3 106.8 407.5C142.3 415.7 177.7 411.3 213.2 406.5C248.7 401.7 284.3 396.3 320 393.5C355.7 390.7 391.3 390.3 426.8 383.3C462.3 376.3 497.7 362.7 533.2 366.3C568.7 370 604.3 391 640 401.8C675.7 412.7 711.3 413.3 746.8 403C782.3 392.7 817.7 371.3 853.2 363.7C888.7 356 924.3 362 942.2 365L960 368L960 541L942.2 541C924.3 541 888.7 541 853.2 541C817.7 541 782.3 541 746.8 541C711.3 541 675.7 541 640 541C604.3 541 568.7 541 533.2 541C497.7 541 462.3 541 426.8 541C391.3 541 355.7 541 320 541C284.3 541 248.7 541 213.2 541C177.7 541 142.3 541 106.8 541C71.3 541 35.7 541 17.8 541L0 541Z" fill="#dfa4bd"></path><path d="M0 444L17.8 442.8C35.7 441.7 71.3 439.3 106.8 435.3C142.3 431.3 177.7 425.7 213.2 425.7C248.7 425.7 284.3 431.3 320 427.5C355.7 423.7 391.3 410.3 426.8 403.8C462.3 397.3 497.7 397.7 533.2 392.2C568.7 386.7 604.3 375.3 640 372.5C675.7 369.7 711.3 375.3 746.8 379.7C782.3 384 817.7 387 853.2 391.2C888.7 395.3 924.3 400.7 942.2 403.3L960 406L960 541L942.2 541C924.3 541 888.7 541 853.2 541C817.7 541 782.3 541 746.8 541C711.3 541 675.7 541 640 541C604.3 541 568.7 541 533.2 541C497.7 541 462.3 541 426.8 541C391.3 541 355.7 541 320 541C284.3 541 248.7 541 213.2 541C177.7 541 142.3 541 106.8 541C71.3 541 35.7 541 17.8 541L0 541Z" fill="#cd93b7"></path><path d="M0 424L17.8 420.3C35.7 416.7 71.3 409.3 106.8 412.5C142.3 415.7 177.7 429.3 213.2 430.7C248.7 432 284.3 421 320 420.3C355.7 419.7 391.3 429.3 426.8 438.2C462.3 447 497.7 455 533.2 453.7C568.7 452.3 604.3 441.7 640 434.8C675.7 428 711.3 425 746.8 420C782.3 415 817.7 408 853.2 406C888.7 404 924.3 407 942.2 408.5L960 410L960 541L942.2 541C924.3 541 888.7 541 853.2 541C817.7 541 782.3 541 746.8 541C711.3 541 675.7 541 640 541C604.3 541 568.7 541 533.2 541C497.7 541 462.3 541 426.8 541C391.3 541 355.7 541 320 541C284.3 541 248.7 541 213.2 541C177.7 541 142.3 541 106.8 541C71.3 541 35.7 541 17.8 541L0 541Z" fill="#b984b2"></path><path d="M0 433L17.8 440.7C35.7 448.3 71.3 463.7 106.8 463.7C142.3 463.7 177.7 448.3 213.2 449C248.7 449.7 284.3 466.3 320 468.7C355.7 471 391.3 459 426.8 448.5C462.3 438 497.7 429 533.2 425.7C568.7 422.3 604.3 424.7 640 429.3C675.7 434 711.3 441 746.8 450C782.3 459 817.7 470 853.2 474.3C888.7 478.7 924.3 476.3 942.2 475.2L960 474L960 541L942.2 541C924.3 541 888.7 541 853.2 541C817.7 541 782.3 541 746.8 541C711.3 541 675.7 541 640 541C604.3 541 568.7 541 533.2 541C497.7 541 462.3 541 426.8 541C391.3 541 355.7 541 320 541C284.3 541 248.7 541 213.2 541C177.7 541 142.3 541 106.8 541C71.3 541 35.7 541 17.8 541L0 541Z" fill="#a276ae"></path><path d="M0 488L17.8 484.8C35.7 481.7 71.3 475.3 106.8 471.2C142.3 467 177.7 465 213.2 470C248.7 475 284.3 487 320 490.5C355.7 494 391.3 489 426.8 481C462.3 473 497.7 462 533.2 462.5C568.7 463 604.3 475 640 482.2C675.7 489.3 711.3 491.7 746.8 490.2C782.3 488.7 817.7 483.3 853.2 481.3C888.7 479.3 924.3 480.7 942.2 481.3L960 482L960 541L942.2 541C924.3 541 888.7 541 853.2 541C817.7 541 782.3 541 746.8 541C711.3 541 675.7 541 640 541C604.3 541 568.7 541 533.2 541C497.7 541 462.3 541 426.8 541C391.3 541 355.7 541 320 541C284.3 541 248.7 541 213.2 541C177.7 541 142.3 541 106.8 541C71.3 541 35.7 541 17.8 541L0 541Z" fill="#886baa"></path><path d="M0 515L17.8 514.8C35.7 514.7 71.3 514.3 106.8 512.7C142.3 511 177.7 508 213.2 509C248.7 510 284.3 515 320 511.5C355.7 508 391.3 496 426.8 491.8C462.3 487.7 497.7 491.3 533.2 495C568.7 498.7 604.3 502.3 640 504.7C675.7 507 711.3 508 746.8 508C782.3 508 817.7 507 853.2 504C888.7 501 924.3 496 942.2 493.5L960 491L960 541L942.2 541C924.3 541 888.7 541 853.2 541C817.7 541 782.3 541 746.8 541C711.3 541 675.7 541 640 541C604.3 541 568.7 541 533.2 541C497.7 541 462.3 541 426.8 541C391.3 541 355.7 541 320 541C284.3 541 248.7 541 213.2 541C177.7 541 142.3 541 106.8 541C71.3 541 35.7 541 17.8 541L0 541Z" fill="#6960a5"></path></svg>