<?xml version="1.0" standalone="no"?>
<!DOCTYPE svg PUBLIC "-//W3C//DTD SVG 20010904//EN"
 "http://www.w3.org/TR/2001/REC-SVG-20010904/DTD/svg10.dtd">
<svg version="1.0" xmlns="http://www.w3.org/2000/svg"
 width="2000.000000pt" height="2000.000000pt" viewBox="0 0 2000.000000 2000.000000"
 preserveAspectRatio="xMidYMid meet">
<metadata>
Created by potrace 1.16, written by Peter Selinger 2001-2019
</metadata>
<g transform="translate(0.000000,2000.000000) scale(0.100000,-0.100000)"
fill="#000000" stroke="none">
<path d="M10395 16944 c-311 -26 -674 -109 -973 -220 -172 -65 -432 -191 -603
-294 -584 -350 -1080 -821 -1502 -1426 l-57 -81 -77 76 c-135 133 -376 276
-532 316 -197 50 -365 13 -477 -107 -65 -69 -98 -145 -92 -213 10 -124 99
-186 311 -215 102 -15 178 -42 237 -85 78 -57 107 -103 161 -251 27 -74 58
-148 69 -164 26 -36 25 -44 -8 -110 -15 -30 -39 -84 -52 -120 -13 -36 -27 -70
-32 -77 -5 -6 -18 -38 -28 -70 -41 -126 -69 -198 -79 -201 -5 -2 -48 11 -96
27 -230 82 -362 87 -650 25 -138 -29 -192 -36 -290 -37 -205 -1 -241 22 -480
313 -196 238 -276 309 -429 381 -136 64 -239 61 -503 -13 -188 -53 -237 -54
-393 -8 -82 24 -135 34 -185 34 -116 0 -220 -41 -269 -107 -42 -57 -30 -207
28 -333 43 -93 137 -167 276 -215 58 -20 92 -23 305 -29 212 -5 245 -8 285
-26 70 -32 125 -101 187 -232 135 -287 157 -330 198 -387 76 -107 187 -176
370 -231 85 -25 105 -27 375 -34 322 -8 327 -9 516 -100 140 -68 239 -146 403
-317 138 -143 141 -148 142 -192 1 -25 1 -49 0 -53 0 -4 4 -55 10 -115 6 -59
11 -115 11 -123 0 -8 3 -37 8 -65 5 -27 14 -81 20 -120 13 -85 36 -191 57
-264 8 -30 16 -64 18 -75 2 -12 10 -41 19 -65 9 -24 18 -53 20 -65 2 -12 6
-27 8 -34 2 -9 -19 -22 -58 -36 -175 -64 -434 -255 -669 -490 -318 -319 -542
-658 -854 -1291 -152 -308 -305 -589 -383 -703 -66 -94 -128 -150 -225 -199
-122 -63 -172 -76 -267 -70 -150 10 -205 41 -232 135 -36 122 1 313 97 503 63
127 150 253 418 609 303 402 379 517 491 745 183 372 228 557 200 810 -33 299
-155 579 -302 695 -101 81 -226 138 -346 160 -31 5 -145 17 -252 25 -366 28
-421 40 -685 150 -296 123 -455 214 -455 261 0 78 -64 139 -138 130 -39 -5
-47 -2 -104 44 -73 59 -186 116 -254 129 -194 37 -330 -167 -269 -404 17 -68
95 -226 161 -328 36 -56 44 -76 44 -115 0 -71 -24 -140 -70 -201 -22 -30 -50
-76 -62 -102 -28 -67 -87 -119 -134 -119 -50 0 -89 -23 -172 -101 -39 -38 -77
-69 -83 -69 -7 0 -45 -16 -84 -35 -78 -37 -168 -117 -224 -198 -50 -74 -63
-76 -124 -24 -121 103 -243 146 -437 154 -110 5 -132 3 -189 -16 -97 -33 -196
-86 -302 -162 -199 -141 -246 -203 -220 -288 18 -63 75 -93 196 -106 85 -8
160 -23 235 -47 77 -23 172 -25 250 -3 74 20 152 19 242 -4 99 -25 217 -87
224 -116 3 -13 -6 -60 -21 -106 -46 -146 -51 -227 -32 -517 10 -152 13 -271 8
-292 -22 -97 -90 -160 -273 -257 -156 -82 -195 -114 -235 -190 -57 -108 -85
-216 -87 -333 -1 -100 0 -108 30 -159 59 -105 192 -148 429 -138 218 9 380 66
500 178 84 78 222 250 263 327 17 32 53 122 80 202 27 80 62 172 77 205 16 33
40 93 55 133 26 73 27 74 82 96 80 33 110 57 193 159 41 51 95 117 119 147 65
79 104 164 116 251 5 41 15 99 21 129 7 30 13 111 13 180 0 108 -4 139 -28
228 -28 98 -29 107 -18 192 12 98 20 119 98 235 71 107 82 149 59 212 -19 52
-22 90 -8 103 4 5 60 -22 123 -59 355 -209 412 -244 459 -281 71 -56 116 -122
140 -205 48 -161 15 -224 -218 -422 -75 -64 -206 -187 -292 -272 -160 -160
-227 -249 -353 -467 -143 -248 -206 -494 -206 -814 0 -174 11 -287 41 -440
100 -498 330 -898 659 -1146 116 -88 337 -197 465 -230 138 -35 311 -43 460
-19 118 18 310 70 409 110 36 15 64 21 70 15 13 -13 -66 -202 -129 -309 -104
-176 -275 -384 -462 -561 -115 -110 -161 -147 -448 -367 -374 -287 -541 -459
-716 -739 -170 -270 -266 -535 -276 -764 -9 -224 39 -416 172 -688 126 -258
238 -423 410 -601 181 -188 357 -314 610 -437 167 -82 278 -114 415 -121 182
-10 276 38 335 169 25 55 29 75 29 158 1 182 -57 301 -268 550 -152 179 -181
233 -238 450 -40 150 -44 280 -11 385 45 142 192 354 313 450 85 68 136 97
435 252 261 136 396 215 630 368 584 384 825 626 1093 1093 87 153 147 293
247 582 134 389 224 568 468 935 215 324 370 493 642 704 270 210 436 305 589
338 l76 17 143 -47 c78 -26 194 -60 257 -77 178 -46 216 -83 260 -255 60 -235
52 -430 -27 -670 -52 -155 -116 -274 -294 -550 -221 -341 -275 -446 -374 -735
-171 -499 -145 -1025 76 -1556 111 -266 326 -643 510 -891 341 -461 915 -926
1545 -1250 384 -197 752 -331 1289 -466 636 -162 941 -188 1395 -121 189 28
483 84 575 109 174 49 395 174 505 286 65 65 124 175 141 261 19 93 -22 195
-103 254 -89 66 -290 88 -563 60 -285 -28 -455 -30 -702 -7 -314 29 -439 59
-689 165 -192 81 -466 240 -629 365 -162 124 -446 363 -582 490 -392 365 -565
615 -693 1002 -114 344 -169 708 -149 976 18 238 67 420 168 628 103 211 181
317 439 598 174 190 235 270 288 383 70 146 89 239 88 434 0 169 -7 214 -61
390 -21 69 -21 116 -1 137 29 29 60 8 139 -94 157 -202 223 -325 300 -563 75
-230 88 -326 99 -710 9 -358 19 -440 77 -630 92 -307 221 -521 434 -725 216
-206 432 -349 673 -445 350 -139 1012 -250 1411 -237 224 7 378 42 863 196
119 38 287 90 372 116 85 26 247 76 360 111 376 119 616 173 842 190 l97 7 49
-45 c95 -84 208 -128 335 -128 28 0 92 13 145 30 72 24 97 28 108 19 8 -6 28
-9 46 -7 33 5 102 -20 417 -154 331 -140 449 -151 549 -55 49 47 74 103 80
177 10 146 -67 314 -231 497 -51 58 -66 83 -75 125 -7 29 -19 84 -28 123 -8
38 -33 115 -55 170 -60 147 -45 198 85 300 72 56 93 79 165 185 73 106 95 184
95 330 -1 118 -8 149 -78 337 -12 32 -13 54 -7 90 14 74 25 96 73 144 143 142
218 295 218 440 0 205 -92 359 -265 445 -73 36 -85 39 -159 38 -58 0 -99 -6
-144 -23 -40 -15 -72 -21 -89 -16 -15 3 -63 33 -107 65 -209 151 -400 203
-539 146 -214 -88 -281 -266 -214 -566 14 -63 29 -165 33 -226 10 -158 -5
-202 -99 -303 -77 -82 -142 -193 -171 -290 -30 -101 -16 -311 28 -414 7 -19
39 -74 71 -123 48 -76 56 -94 52 -125 -7 -51 -43 -100 -125 -170 l-71 -59
-123 14 c-374 45 -915 56 -1158 23 -233 -32 -509 -84 -776 -147 -477 -112
-636 -137 -814 -127 -125 8 -200 26 -296 73 -103 51 -179 122 -220 207 -59
124 -69 191 -69 467 0 346 22 488 134 880 79 273 92 340 98 501 6 153 -7 295
-39 414 -24 91 -124 293 -216 439 -34 54 -62 100 -62 102 0 8 95 62 271 155
103 53 240 131 306 172 235 147 285 163 548 173 184 8 282 -3 448 -47 503
-133 874 -209 1019 -209 192 0 406 107 594 297 153 154 263 322 357 544 136
319 201 615 200 909 0 133 -4 169 -26 251 -29 111 -59 174 -116 247 -99 125
-231 144 -325 47 -63 -64 -109 -161 -160 -340 -76 -261 -173 -435 -341 -614
-77 -81 -171 -147 -265 -186 -270 -110 -542 -80 -859 94 -190 104 -278 146
-371 177 -77 26 -98 28 -230 29 -137 0 -150 -2 -235 -32 -49 -17 -139 -54
-198 -82 -82 -38 -109 -47 -113 -36 -3 7 -1 23 5 34 6 11 13 33 15 48 1 15 8
44 14 63 18 57 35 124 37 142 1 10 77 95 171 190 170 174 340 373 429 503 80
117 122 216 144 343 23 132 42 174 115 264 82 99 126 108 259 56 71 -29 94
-33 172 -33 83 0 94 2 132 29 63 42 88 101 88 202 0 77 -3 86 -48 177 -59 119
-140 205 -246 261 -219 115 -411 126 -593 35 -151 -75 -246 -165 -393 -369
-148 -205 -165 -224 -182 -208 -7 8 -18 41 -24 74 -10 54 -16 87 -39 199 -36
178 -144 520 -236 745 -45 111 -187 400 -249 505 -134 229 -294 463 -444 645
-389 474 -929 886 -1452 1109 -250 106 -600 204 -854 241 -137 19 -538 34
-660 24z m150 -534 c426 -24 788 -94 1100 -215 281 -108 414 -211 640 -493
113 -141 205 -275 205 -300 0 -26 -48 -65 -69 -56 -45 19 -326 85 -461 109
-198 34 -294 61 -483 134 -261 101 -484 164 -757 215 -512 96 -837 117 -1166
76 -201 -25 -288 -26 -334 -2 -83 41 -77 117 18 212 176 174 515 294 900 319
186 12 199 12 407 1z m-6985 -2207 c1 -29 39 -106 67 -135 15 -16 51 -37 82
-48 52 -20 62 -20 210 -10 164 12 231 9 320 -16 170 -48 267 -138 421 -392
127 -210 219 -315 313 -361 112 -55 234 -81 417 -91 387 -20 604 -88 895 -282
180 -121 174 -111 159 -235 l-7 -53 -78 75 c-117 111 -230 191 -364 255 -221
106 -288 120 -601 120 -244 0 -328 13 -450 71 -115 54 -166 125 -285 398 -77
174 -99 212 -173 290 -121 126 -171 141 -496 150 l-245 6 -73 39 c-40 21 -81
51 -92 66 -23 32 -54 145 -45 160 10 16 25 12 25 -7z m-916 -1854 c-9 -22 -20
-39 -24 -39 -4 0 -27 37 -50 82 -36 68 -44 94 -47 152 l-5 71 72 -114 72 -114
-18 -38z m351 211 c10 -16 -21 -62 -85 -124 -76 -74 -112 -148 -145 -291 -39
-176 -73 -283 -116 -367 -26 -51 -34 -117 -19 -162 12 -37 14 -38 95 -51 67
-11 129 -36 158 -63 27 -26 67 -91 67 -110 0 -5 -31 -56 -68 -115 -84 -128
-104 -193 -106 -332 -1 -82 4 -114 24 -175 22 -65 25 -92 24 -200 -1 -78 -8
-150 -18 -190 -8 -36 -16 -81 -16 -101 0 -53 -50 -143 -132 -239 -40 -47 -89
-107 -108 -132 -35 -46 -102 -98 -127 -98 -9 0 -13 20 -13 73 1 119 17 211 56
309 66 170 67 190 16 209 -33 12 -65 -23 -103 -116 -64 -156 -71 -193 -76
-410 l-6 -200 -52 -120 c-28 -66 -69 -172 -90 -235 -21 -63 -50 -141 -66 -172
-54 -112 -229 -319 -317 -378 -25 -17 -89 -44 -141 -61 -82 -27 -115 -32 -226
-36 -95 -4 -150 -1 -204 11 -131 28 -157 59 -155 186 1 66 8 106 33 181 42
130 78 170 214 240 132 68 201 114 260 178 94 100 103 149 81 450 -19 283 -15
373 26 505 16 54 30 111 30 126 0 15 -25 76 -55 135 -30 59 -55 118 -55 131 0
48 -52 155 -102 209 -69 76 -123 100 -223 99 -106 -1 -189 -29 -296 -101 -46
-31 -113 -76 -149 -100 -72 -48 -156 -83 -200 -83 -41 0 -80 20 -80 41 0 34
216 197 349 264 110 56 145 65 240 65 160 0 299 -46 395 -129 68 -59 105 -75
150 -67 39 7 70 35 185 165 55 62 75 77 160 117 68 33 113 62 156 103 46 44
72 60 110 70 109 27 172 77 218 174 15 32 45 80 67 108 37 47 70 128 70 172 0
11 14 76 31 146 44 180 143 367 243 459 44 40 78 53 91 32z m41 -535 c375
-256 761 -543 872 -649 133 -127 231 -320 248 -489 13 -130 -48 -299 -147
-410 -28 -32 -129 -127 -224 -212 -197 -176 -328 -311 -386 -399 -22 -34 -71
-124 -109 -201 -100 -203 -150 -421 -150 -655 0 -115 29 -340 56 -430 30 -100
103 -280 139 -342 112 -191 309 -367 482 -431 234 -87 344 -102 525 -72 193
32 439 129 586 231 35 24 64 44 66 44 2 0 -22 -80 -53 -178 -60 -189 -58 -186
-156 -263 -59 -46 -117 -73 -245 -113 -198 -63 -295 -79 -455 -74 -125 4 -150
8 -235 37 -390 132 -692 451 -850 897 -137 388 -162 791 -69 1134 40 149 190
420 324 587 63 79 242 252 390 377 234 199 325 333 325 481 0 71 -33 196 -74
280 -64 129 -156 204 -486 395 -262 152 -357 218 -472 330 l-98 95 18 67 c9
38 20 67 24 65 4 -1 74 -47 154 -102z m4329 -205 c3 -5 19 -10 34 -10 54 0
176 -100 227 -186 34 -58 64 -184 64 -271 0 -219 -110 -447 -227 -469 -68 -13
-142 29 -219 124 -170 207 -188 543 -40 725 65 80 140 120 161 87z m9786 -388
c-111 -302 -203 -455 -375 -628 -115 -115 -232 -193 -340 -226 -56 -17 -84
-20 -155 -15 -123 8 -549 97 -807 167 -281 77 -404 94 -624 87 -307 -11 -381
-34 -650 -202 -69 -43 -204 -120 -300 -170 -96 -50 -201 -107 -234 -125 -56
-32 -59 -33 -72 -15 -22 29 -17 105 9 147 42 71 123 126 242 166 89 30 235 95
367 163 230 118 343 144 628 144 198 0 232 -3 525 -46 39 -6 180 -33 315 -59
356 -71 483 -83 628 -60 294 48 605 300 811 658 30 51 55 92 57 92 2 0 -9 -35
-25 -78z m-7313 -261 c53 -27 117 -94 147 -156 31 -62 49 -181 41 -260 -24
-231 -167 -467 -319 -523 -73 -28 -201 -30 -253 -6 -46 22 -104 89 -147 172
-93 177 -90 351 10 546 76 146 167 224 292 246 73 14 183 5 229 -19z m-8535
-150 c48 -11 108 -57 101 -76 -4 -10 -12 -11 -27 -6 -64 24 -128 23 -238 -5
-87 -22 -112 -25 -122 -15 -9 10 -8 16 8 28 35 27 124 64 173 73 65 11 62 11
105 1z m94 -198 c46 -17 73 -34 76 -45 6 -22 7 -22 -88 2 -93 24 -208 26 -285
5 -71 -19 -142 -18 -209 3 l-55 17 25 17 c23 15 32 15 95 2 77 -17 131 -12
221 16 71 24 124 19 220 -17z m16648 -1389 c38 -15 109 -55 158 -88 186 -127
202 -132 332 -91 101 32 146 31 225 -9 89 -45 126 -81 167 -162 31 -64 37 -88
41 -158 7 -142 -38 -242 -174 -387 -73 -78 -98 -126 -112 -214 -12 -73 -3
-129 33 -207 65 -143 71 -327 13 -443 -38 -75 -127 -184 -199 -241 -138 -110
-181 -230 -124 -351 29 -65 87 -242 82 -256 -5 -15 -37 22 -37 43 0 35 -39
124 -71 163 -42 51 -96 77 -160 77 -47 0 -55 -4 -92 -40 l-40 -40 -116 49
c-125 53 -302 112 -392 130 -79 17 -123 -2 -181 -77 -77 -99 -117 -227 -139
-439 -14 -147 -5 -212 41 -278 55 -79 107 -111 218 -130 120 -22 140 -31 89
-40 -59 -11 -154 4 -221 34 -65 30 -105 72 -152 158 -25 46 -26 53 -20 163 10
196 59 423 102 471 8 8 14 22 14 29 0 8 19 43 43 79 23 36 42 68 42 71 0 3 22
25 49 50 63 58 106 146 106 216 0 40 -7 62 -35 107 -19 31 -50 82 -69 113 -69
112 -87 307 -41 431 37 96 64 138 143 219 102 105 117 148 116 329 -1 117 -6
166 -33 294 -30 142 -31 160 -21 219 19 111 69 179 164 224 58 27 159 20 251
-18z m-9515 -40 c37 -12 48 -19 35 -21 -36 -7 -208 -85 -290 -131 -196 -110
-503 -351 -680 -533 -187 -193 -410 -506 -589 -828 -110 -197 -169 -335 -267
-615 -106 -306 -119 -340 -195 -485 -238 -457 -495 -720 -1084 -1107 -236
-155 -320 -204 -630 -366 -157 -83 -316 -170 -355 -196 -175 -114 -381 -382
-448 -582 -49 -147 -49 -334 1 -520 73 -270 98 -318 296 -554 137 -163 194
-266 203 -363 6 -66 -10 -133 -32 -133 -32 0 -335 357 -458 540 -166 248 -236
426 -257 659 -33 365 80 693 343 992 158 180 300 280 632 447 121 61 267 142
325 180 112 74 302 232 439 365 100 98 245 288 331 435 35 59 102 170 150 247
109 175 113 182 160 320 52 149 98 264 237 590 129 303 176 400 261 531 32 49
66 110 74 135 30 89 195 333 306 454 67 72 179 174 247 224 113 83 170 112
473 238 85 35 245 75 367 92 109 15 340 7 405 -15z m3315 -93 c26 -11 84 -58
138 -110 93 -90 104 -106 225 -329 37 -68 99 -301 108 -405 3 -34 12 -114 20
-177 7 -63 21 -180 29 -260 35 -327 86 -573 176 -840 77 -230 137 -327 305
-490 123 -119 174 -156 279 -199 249 -104 630 -147 1080 -122 343 19 484 40
875 126 402 89 1203 244 1349 261 152 18 441 15 593 -6 l87 -13 -6 -111 c-3
-61 -7 -112 -9 -114 -1 -2 -56 -10 -121 -17 -235 -28 -451 -80 -863 -210
-1299 -408 -1228 -390 -1545 -390 -282 1 -531 31 -870 106 -436 96 -726 250
-1017 541 -161 160 -269 334 -341 548 -67 197 -77 270 -87 625 -10 371 -20
462 -65 640 -82 318 -181 525 -368 763 -56 72 -97 114 -138 140 -32 20 -58 40
-58 44 -1 12 83 27 131 23 27 -2 68 -13 93 -24z m5652 -2645 c263 -76 536
-205 861 -408 78 -49 142 -91 142 -93 0 -4 -142 54 -245 100 -326 146 -601
231 -802 250 l-73 7 -10 36 c-8 30 -4 142 6 142 1 0 56 -15 121 -34z"/>
<path d="M2412 11160 c-15 -21 -35 -39 -44 -40 -34 0 -48 -29 -48 -95 0 -44 4
-64 14 -68 22 -9 36 14 36 61 0 38 3 44 28 53 15 5 36 23 46 40 l18 31 43 -42
c39 -39 65 -46 65 -18 0 6 -18 35 -40 65 -51 67 -78 70 -118 13z"/>
<path d="M2113 11093 c-18 -7 -16 -43 2 -63 13 -15 11 -25 -25 -100 -27 -54
-37 -87 -31 -93 17 -17 39 1 75 65 l36 63 0 -47 c0 -40 3 -48 18 -48 29 0 65
39 58 64 -3 11 -6 33 -6 47 0 14 -14 47 -31 72 -31 46 -56 57 -96 40z"/>
<path d="M1871 10931 c-6 -11 -11 -29 -11 -40 0 -25 -10 -51 -20 -51 -5 0 -11
18 -15 39 -7 44 -24 64 -44 52 -10 -7 -10 -21 -1 -72 21 -115 36 -131 80 -84
l23 25 11 -23 c16 -31 44 -33 57 -4 8 18 17 23 35 19 19 -3 24 0 24 15 0 23
-30 53 -53 53 -10 0 -19 11 -22 28 -13 59 -45 80 -64 43z"/>
<path d="M17850 9400 c-70 -24 -141 -97 -165 -171 -21 -63 -16 -160 15 -287
11 -46 22 -115 26 -155 8 -115 13 -135 42 -168 62 -74 195 -94 296 -45 125 61
196 200 196 386 0 155 -45 267 -149 371 -92 92 -151 107 -261 69z m182 -139
c81 -75 117 -148 125 -256 6 -79 -9 -180 -34 -230 -20 -39 -71 -93 -105 -111
-35 -18 -111 -18 -148 1 -33 17 -36 27 -45 135 -3 42 -15 114 -26 160 -49 206
-30 293 75 341 67 30 86 25 158 -40z"/>
<path d="M18595 9208 c-154 -55 -305 -292 -305 -478 0 -159 79 -245 225 -244
94 1 156 33 256 133 67 67 80 86 109 161 63 164 53 257 -38 350 -77 78 -166
107 -247 78z m155 -123 c70 -44 87 -122 49 -234 -29 -84 -72 -146 -144 -203
-96 -78 -177 -85 -236 -22 -21 23 -24 35 -24 107 0 76 3 88 43 171 44 89 100
156 164 196 41 26 92 20 148 -15z"/>
<path d="M18205 8579 c-40 -17 -131 -96 -149 -130 -34 -62 -6 -110 89 -155 68
-33 117 -32 144 2 24 30 26 75 11 172 -16 95 -47 131 -95 111z"/>
<path d="M17748 8446 c-95 -26 -193 -119 -255 -243 -29 -58 -37 -88 -41 -146
-11 -178 113 -457 225 -504 118 -49 247 36 343 227 86 171 97 335 32 475 -38
81 -103 152 -167 181 -56 27 -71 28 -137 10z m121 -120 c79 -58 121 -149 121
-260 -1 -93 -13 -146 -56 -231 -60 -119 -135 -195 -192 -195 -77 0 -202 272
-189 410 6 70 44 147 105 213 86 91 147 110 211 63z"/>
<path d="M18400 8281 c-84 -27 -128 -78 -196 -228 -66 -145 -103 -370 -74
-458 16 -49 75 -114 125 -136 171 -78 367 78 430 343 30 128 7 298 -52 382
-57 81 -157 122 -233 97z m127 -133 c48 -47 77 -149 70 -248 -9 -127 -74 -266
-152 -326 -71 -54 -162 -39 -207 34 -18 30 -20 44 -15 115 8 108 31 194 78
296 45 96 81 148 113 161 34 15 78 2 113 -32z"/>
<path d="M17826 7494 c-9 -8 -16 -26 -16 -39 0 -34 66 -213 86 -236 32 -35 74
-25 156 40 77 61 88 75 88 116 0 57 -38 85 -156 115 -96 24 -137 25 -158 4z"/>
</g>
</svg>
